<?xml version="1.0" standalone="no"?>
<!DOCTYPE svg PUBLIC "-//W3C//DTD SVG 20010904//EN"
 "http://www.w3.org/TR/2001/REC-SVG-20010904/DTD/svg10.dtd">
<svg version="1.0" xmlns="http://www.w3.org/2000/svg"
 width="757.000000pt" height="787.000000pt" viewBox="0 0 757.000000 787.000000"
 preserveAspectRatio="xMidYMid meet">

<g transform="translate(0.000000,787.000000) scale(0.100000,-0.100000)"
fill="#000000" stroke="none">
<path d="M3675 6433 c-204 -17 -402 -151 -495 -333 -51 -100 -70 -178 -70
-286 0 -156 38 -276 125 -395 82 -111 232 -205 375 -235 125 -27 313 -4 412
49 101 54 172 116 233 202 82 116 115 223 115 374 0 273 -168 506 -424 591
-80 27 -190 40 -271 33z m145 -339 c83 -25 149 -79 193 -159 31 -58 31 -191 0
-257 -26 -54 -79 -109 -143 -147 -39 -23 -56 -26 -131 -26 -75 1 -91 4 -132
28 -64 38 -113 88 -140 145 -17 37 -22 64 -22 132 0 75 4 91 28 132 38 65 115
129 179 150 67 21 101 22 168 2z"/>
<path d="M1136 4205 c-15 -8 -33 -15 -39 -15 -18 0 -97 -71 -122 -109 -13 -20
-238 -608 -499 -1307 l-476 -1271 0 -115 c0 -130 7 -151 69 -213 58 -58 67
-65 101 -72 17 -3 33 -10 36 -14 7 -12 7049 -12 7072 0 9 4 34 16 55 26 49 24
100 72 128 121 18 31 23 59 27 134 l3 95 -264 705 c-532 1417 -621 1657 -666
1780 -41 115 -49 129 -101 180 -90 88 -102 90 -508 90 l-342 0 0 -320 0 -320
208 0 207 0 345 -916 c190 -504 347 -920 348 -925 2 -5 -1174 -9 -2968 -9
-1832 0 -2970 4 -2968 9 2 5 156 422 343 925 l340 916 202 0 203 0 0 320 0
320 -352 0 c-294 0 -358 -3 -382 -15z"/>
<path d="M470 804 c0 -5 -34 -182 -75 -393 -41 -211 -75 -385 -75 -387 0 -2
25 -4 55 -4 30 0 55 4 55 8 0 18 78 443 82 447 2 3 51 -101 108 -230 57 -129
107 -235 110 -235 3 0 39 73 80 163 131 289 143 312 146 302 2 -5 17 -98 34
-205 43 -279 32 -250 96 -250 51 0 54 1 49 23 -3 12 -35 188 -70 391 -36 204
-67 371 -68 372 -1 2 -61 -125 -132 -281 -71 -157 -133 -281 -137 -277 -4 4
-61 131 -128 282 -118 268 -130 293 -130 274z"/>
<path d="M5882 456 c-90 -193 -172 -370 -182 -393 l-19 -43 55 0 55 0 44 95
44 95 164 0 164 0 38 -91 c21 -50 44 -93 51 -96 6 -2 32 -3 57 -1 l46 3 -175
390 c-96 214 -176 390 -177 391 -1 1 -75 -157 -165 -350z m224 -17 c30 -67 54
-124 54 -126 0 -1 -54 -3 -120 -3 l-119 0 50 108 c28 59 55 118 60 131 5 13
12 21 16 18 3 -4 30 -61 59 -128z"/>
<path d="M1700 395 l0 -375 55 0 55 0 0 375 0 375 -55 0 -55 0 0 -375z"/>
<path d="M2400 395 l0 -375 165 0 165 0 0 50 0 50 -110 0 -110 0 0 325 0 325
-55 0 -55 0 0 -375z"/>
<path d="M3240 395 l0 -375 205 0 205 0 0 50 0 50 -150 0 -150 0 0 130 0 130
145 0 145 0 0 50 0 50 -145 0 -145 0 0 95 0 95 150 0 150 0 0 50 0 50 -205 0
-205 0 0 -375z"/>
<path d="M4840 720 l0 -50 90 0 90 0 0 -325 0 -325 50 0 50 0 0 325 0 325 90
0 90 0 0 50 0 50 -230 0 -230 0 0 -50z"/>
<path d="M6900 396 l0 -376 55 0 55 0 0 154 0 153 74 5 c103 7 170 45 209 118
36 70 36 130 -1 201 -20 39 -41 62 -76 84 -46 28 -55 30 -182 33 l-134 4 0
-376z m260 255 c50 -26 70 -85 50 -142 -19 -55 -64 -79 -142 -79 l-58 0 0 120
0 120 58 0 c37 0 70 -7 92 -19z"/>
</g>
</svg>
